<?xml version="1.0" encoding="UTF-8" standalone="no"?>
<!DOCTYPE svg PUBLIC "-//W3C//DTD SVG 1.1//EN"
 "http://www.w3.org/Graphics/SVG/1.1/DTD/svg11.dtd">
<!-- Generated by graphviz version 2.43.0 (0)
 -->
<!-- Title: %3 Pages: 1 -->
<svg width="546pt" height="446pt"
 viewBox="0.00 0.00 546.00 446.00" xmlns="http://www.w3.org/2000/svg" xmlns:xlink="http://www.w3.org/1999/xlink">
<g id="graph0" class="graph" transform="scale(1 1) rotate(0) translate(4 442)">
<title>%3</title>
<polygon fill="white" stroke="transparent" points="-4,4 -4,-442 542,-442 542,4 -4,4"/>
<!-- 139928652614368 -->
<g id="node1" class="node">
<title>139928652614368</title>
<polygon fill="#caff70" stroke="black" points="314,-31 207,-31 207,0 314,0 314,-31"/>
<text text-anchor="middle" x="260.5" y="-7" font-family="monospace" font-size="10.00"> (1, 4, 16, 16)</text>
</g>
<!-- 139928653503824 -->
<g id="node2" class="node">
<title>139928653503824</title>
<polygon fill="lightgrey" stroke="black" points="305,-86 216,-86 216,-67 305,-67 305,-86"/>
<text text-anchor="middle" x="260.5" y="-74" font-family="monospace" font-size="10.00">AddBackward0</text>
</g>
<!-- 139928653503824&#45;&gt;139928652614368 -->
<g id="edge18" class="edge">
<title>139928653503824&#45;&gt;139928652614368</title>
<path fill="none" stroke="black" d="M260.5,-66.79C260.5,-60.07 260.5,-50.4 260.5,-41.34"/>
<polygon fill="black" stroke="black" points="264,-41.19 260.5,-31.19 257,-41.19 264,-41.19"/>
</g>
<!-- 139928653497200 -->
<g id="node3" class="node">
<title>139928653497200</title>
<polygon fill="lightgrey" stroke="black" points="235,-141 122,-141 122,-122 235,-122 235,-141"/>
<text text-anchor="middle" x="178.5" y="-129" font-family="monospace" font-size="10.00">SigmoidBackward0</text>
</g>
<!-- 139928653497200&#45;&gt;139928653503824 -->
<g id="edge1" class="edge">
<title>139928653497200&#45;&gt;139928653503824</title>
<path fill="none" stroke="black" d="M191.67,-121.98C204.27,-113.84 223.5,-101.41 238.44,-91.76"/>
<polygon fill="black" stroke="black" points="240.59,-94.54 247.09,-86.17 236.79,-88.66 240.59,-94.54"/>
</g>
<!-- 139928653503872 -->
<g id="node4" class="node">
<title>139928653503872</title>
<polygon fill="lightgrey" stroke="black" points="220,-196 125,-196 125,-177 220,-177 220,-196"/>
<text text-anchor="middle" x="172.5" y="-184" font-family="monospace" font-size="10.00">ReluBackward0</text>
</g>
<!-- 139928653503872&#45;&gt;139928653497200 -->
<g id="edge2" class="edge">
<title>139928653503872&#45;&gt;139928653497200</title>
<path fill="none" stroke="black" d="M173.49,-176.75C174.28,-169.8 175.4,-159.85 176.39,-151.13"/>
<polygon fill="black" stroke="black" points="179.88,-151.42 177.53,-141.09 172.92,-150.63 179.88,-151.42"/>
</g>
<!-- 139928653512416 -->
<g id="node5" class="node">
<title>139928653512416</title>
<polygon fill="lightgrey" stroke="black" points="238,-251 101,-251 101,-232 238,-232 238,-251"/>
<text text-anchor="middle" x="169.5" y="-239" font-family="monospace" font-size="10.00">ConvolutionBackward0</text>
</g>
<!-- 139928653512416&#45;&gt;139928653503872 -->
<g id="edge3" class="edge">
<title>139928653512416&#45;&gt;139928653503872</title>
<path fill="none" stroke="black" d="M170,-231.75C170.39,-224.8 170.95,-214.85 171.45,-206.13"/>
<polygon fill="black" stroke="black" points="174.94,-206.27 172.01,-196.09 167.95,-205.88 174.94,-206.27"/>
</g>
<!-- 139928653512320 -->
<g id="node6" class="node">
<title>139928653512320</title>
<polygon fill="lightgrey" stroke="black" points="101,-306 0,-306 0,-287 101,-287 101,-306"/>
<text text-anchor="middle" x="50.5" y="-294" font-family="monospace" font-size="10.00">AccumulateGrad</text>
</g>
<!-- 139928653512320&#45;&gt;139928653512416 -->
<g id="edge4" class="edge">
<title>139928653512320&#45;&gt;139928653512416</title>
<path fill="none" stroke="black" d="M69.62,-286.98C88.85,-278.42 118.73,-265.11 140.81,-255.28"/>
<polygon fill="black" stroke="black" points="142.32,-258.44 150.03,-251.17 139.47,-252.04 142.32,-258.44"/>
</g>
<!-- 139928653682768 -->
<g id="node7" class="node">
<title>139928653682768</title>
<polygon fill="lightblue" stroke="black" points="98,-372 3,-372 3,-342 98,-342 98,-372"/>
<text text-anchor="middle" x="50.5" y="-360" font-family="monospace" font-size="10.00">main.0.weight</text>
<text text-anchor="middle" x="50.5" y="-349" font-family="monospace" font-size="10.00"> (4, 3, 1, 1)</text>
</g>
<!-- 139928653682768&#45;&gt;139928653512320 -->
<g id="edge5" class="edge">
<title>139928653682768&#45;&gt;139928653512320</title>
<path fill="none" stroke="black" d="M50.5,-341.84C50.5,-334.21 50.5,-324.7 50.5,-316.45"/>
<polygon fill="black" stroke="black" points="54,-316.27 50.5,-306.27 47,-316.27 54,-316.27"/>
</g>
<!-- 139928653512368 -->
<g id="node8" class="node">
<title>139928653512368</title>
<polygon fill="lightgrey" stroke="black" points="220,-306 119,-306 119,-287 220,-287 220,-306"/>
<text text-anchor="middle" x="169.5" y="-294" font-family="monospace" font-size="10.00">AccumulateGrad</text>
</g>
<!-- 139928653512368&#45;&gt;139928653512416 -->
<g id="edge6" class="edge">
<title>139928653512368&#45;&gt;139928653512416</title>
<path fill="none" stroke="black" d="M169.5,-286.75C169.5,-279.8 169.5,-269.85 169.5,-261.13"/>
<polygon fill="black" stroke="black" points="173,-261.09 169.5,-251.09 166,-261.09 173,-261.09"/>
</g>
<!-- 139928653683248 -->
<g id="node9" class="node">
<title>139928653683248</title>
<polygon fill="lightblue" stroke="black" points="205,-372 122,-372 122,-342 205,-342 205,-372"/>
<text text-anchor="middle" x="163.5" y="-360" font-family="monospace" font-size="10.00">main.0.bias</text>
<text text-anchor="middle" x="163.5" y="-349" font-family="monospace" font-size="10.00"> (4)</text>
</g>
<!-- 139928653683248&#45;&gt;139928653512368 -->
<g id="edge7" class="edge">
<title>139928653683248&#45;&gt;139928653512368</title>
<path fill="none" stroke="black" d="M164.95,-341.84C165.73,-334.21 166.71,-324.7 167.56,-316.45"/>
<polygon fill="black" stroke="black" points="171.06,-316.57 168.6,-306.27 164.1,-315.86 171.06,-316.57"/>
</g>
<!-- 139928653496384 -->
<g id="node10" class="node">
<title>139928653496384</title>
<polygon fill="lightgrey" stroke="black" points="433,-141 254,-141 254,-122 433,-122 433,-141"/>
<text text-anchor="middle" x="343.5" y="-129" font-family="monospace" font-size="10.00">UpsampleBilinear2DBackward0</text>
</g>
<!-- 139928653496384&#45;&gt;139928653503824 -->
<g id="edge8" class="edge">
<title>139928653496384&#45;&gt;139928653503824</title>
<path fill="none" stroke="black" d="M330.16,-121.98C317.41,-113.84 297.95,-101.41 282.83,-91.76"/>
<polygon fill="black" stroke="black" points="284.39,-88.6 274.08,-86.17 280.62,-94.5 284.39,-88.6"/>
</g>
<!-- 139928653503776 -->
<g id="node11" class="node">
<title>139928653503776</title>
<polygon fill="lightgrey" stroke="black" points="395,-196 294,-196 294,-177 395,-177 395,-196"/>
<text text-anchor="middle" x="344.5" y="-184" font-family="monospace" font-size="10.00">ClampBackward1</text>
</g>
<!-- 139928653503776&#45;&gt;139928653496384 -->
<g id="edge9" class="edge">
<title>139928653503776&#45;&gt;139928653496384</title>
<path fill="none" stroke="black" d="M344.33,-176.75C344.2,-169.8 344.02,-159.85 343.85,-151.13"/>
<polygon fill="black" stroke="black" points="347.35,-151.02 343.66,-141.09 340.35,-151.15 347.35,-151.02"/>
</g>
<!-- 139928653510688 -->
<g id="node12" class="node">
<title>139928653510688</title>
<polygon fill="lightgrey" stroke="black" points="391,-251 302,-251 302,-232 391,-232 391,-251"/>
<text text-anchor="middle" x="346.5" y="-239" font-family="monospace" font-size="10.00">AddBackward0</text>
</g>
<!-- 139928653510688&#45;&gt;139928653503776 -->
<g id="edge10" class="edge">
<title>139928653510688&#45;&gt;139928653503776</title>
<path fill="none" stroke="black" d="M346.17,-231.75C345.91,-224.8 345.53,-214.85 345.2,-206.13"/>
<polygon fill="black" stroke="black" points="348.7,-205.95 344.82,-196.09 341.7,-206.21 348.7,-205.95"/>
</g>
<!-- 139928653510592 -->
<g id="node13" class="node">
<title>139928653510592</title>
<polygon fill="lightgrey" stroke="black" points="415,-306 278,-306 278,-287 415,-287 415,-306"/>
<text text-anchor="middle" x="346.5" y="-294" font-family="monospace" font-size="10.00">ConvolutionBackward0</text>
</g>
<!-- 139928653510592&#45;&gt;139928653510688 -->
<g id="edge11" class="edge">
<title>139928653510592&#45;&gt;139928653510688</title>
<path fill="none" stroke="black" d="M346.5,-286.75C346.5,-279.8 346.5,-269.85 346.5,-261.13"/>
<polygon fill="black" stroke="black" points="350,-261.09 346.5,-251.09 343,-261.09 350,-261.09"/>
</g>
<!-- 139928653502240 -->
<g id="node14" class="node">
<title>139928653502240</title>
<polygon fill="lightgrey" stroke="black" points="324,-366.5 223,-366.5 223,-347.5 324,-347.5 324,-366.5"/>
<text text-anchor="middle" x="273.5" y="-354.5" font-family="monospace" font-size="10.00">AccumulateGrad</text>
</g>
<!-- 139928653502240&#45;&gt;139928653510592 -->
<g id="edge12" class="edge">
<title>139928653502240&#45;&gt;139928653510592</title>
<path fill="none" stroke="black" d="M284.27,-347.37C295.7,-338.21 313.98,-323.56 327.78,-312.51"/>
<polygon fill="black" stroke="black" points="330.07,-315.15 335.68,-306.17 325.69,-309.69 330.07,-315.15"/>
</g>
<!-- 139928654947536 -->
<g id="node15" class="node">
<title>139928654947536</title>
<polygon fill="lightblue" stroke="black" points="321,-438 226,-438 226,-408 321,-408 321,-438"/>
<text text-anchor="middle" x="273.5" y="-426" font-family="monospace" font-size="10.00">skip.weight</text>
<text text-anchor="middle" x="273.5" y="-415" font-family="monospace" font-size="10.00"> (4, 2, 3, 3)</text>
</g>
<!-- 139928654947536&#45;&gt;139928653502240 -->
<g id="edge13" class="edge">
<title>139928654947536&#45;&gt;139928653502240</title>
<path fill="none" stroke="black" d="M273.5,-407.8C273.5,-398.7 273.5,-386.79 273.5,-376.9"/>
<polygon fill="black" stroke="black" points="277,-376.84 273.5,-366.84 270,-376.84 277,-376.84"/>
</g>
<!-- 139928653502192 -->
<g id="node16" class="node">
<title>139928653502192</title>
<polygon fill="lightgrey" stroke="black" points="443,-366.5 342,-366.5 342,-347.5 443,-347.5 443,-366.5"/>
<text text-anchor="middle" x="392.5" y="-354.5" font-family="monospace" font-size="10.00">AccumulateGrad</text>
</g>
<!-- 139928653502192&#45;&gt;139928653510592 -->
<g id="edge14" class="edge">
<title>139928653502192&#45;&gt;139928653510592</title>
<path fill="none" stroke="black" d="M385.71,-347.37C378.85,-338.64 368.07,-324.93 359.55,-314.09"/>
<polygon fill="black" stroke="black" points="362.25,-311.86 353.32,-306.17 356.75,-316.19 362.25,-311.86"/>
</g>
<!-- 139928652616608 -->
<g id="node17" class="node">
<title>139928652616608</title>
<polygon fill="lightblue" stroke="black" points="428,-438 357,-438 357,-408 428,-408 428,-438"/>
<text text-anchor="middle" x="392.5" y="-426" font-family="monospace" font-size="10.00">skip.bias</text>
<text text-anchor="middle" x="392.5" y="-415" font-family="monospace" font-size="10.00"> (4)</text>
</g>
<!-- 139928652616608&#45;&gt;139928653502192 -->
<g id="edge15" class="edge">
<title>139928652616608&#45;&gt;139928653502192</title>
<path fill="none" stroke="black" d="M392.5,-407.8C392.5,-398.7 392.5,-386.79 392.5,-376.9"/>
<polygon fill="black" stroke="black" points="396,-376.84 392.5,-366.84 389,-376.84 396,-376.84"/>
</g>
<!-- 139928653510640 -->
<g id="node18" class="node">
<title>139928653510640</title>
<polygon fill="lightgrey" stroke="black" points="538,-306 437,-306 437,-287 538,-287 538,-306"/>
<text text-anchor="middle" x="487.5" y="-294" font-family="monospace" font-size="10.00">AccumulateGrad</text>
</g>
<!-- 139928653510640&#45;&gt;139928653510688 -->
<g id="edge16" class="edge">
<title>139928653510640&#45;&gt;139928653510688</title>
<path fill="none" stroke="black" d="M464.85,-286.98C441.65,-278.27 405.38,-264.63 379.1,-254.75"/>
<polygon fill="black" stroke="black" points="380.16,-251.41 369.57,-251.17 377.7,-257.97 380.16,-251.41"/>
</g>
<!-- 139928653682688 -->
<g id="node19" class="node">
<title>139928653682688</title>
<polygon fill="lightblue" stroke="black" points="515.5,-372 461.5,-372 461.5,-342 515.5,-342 515.5,-372"/>
<text text-anchor="middle" x="488.5" y="-360" font-family="monospace" font-size="10.00">bias</text>
<text text-anchor="middle" x="488.5" y="-349" font-family="monospace" font-size="10.00"> (1)</text>
</g>
<!-- 139928653682688&#45;&gt;139928653510640 -->
<g id="edge17" class="edge">
<title>139928653682688&#45;&gt;139928653510640</title>
<path fill="none" stroke="black" d="M488.26,-341.84C488.13,-334.21 487.97,-324.7 487.82,-316.45"/>
<polygon fill="black" stroke="black" points="491.32,-316.2 487.65,-306.27 484.32,-316.32 491.32,-316.2"/>
</g>
</g>
</svg>
